<?xml version="1.0" encoding="iso-8859-1"?>
<!-- Uploaded to: SVG Repo, www.svgrepo.com, Transformed by: SVG Repo Mixer Tools -->
<svg height="800px" width="800px" version="1.1" id="Layer_1" xmlns="http://www.w3.org/2000/svg" xmlns:xlink="http://www.w3.org/1999/xlink" 
	 viewBox="0 0 512.001 512.001" xml:space="preserve">
<path style="fill:#EC589B;" d="M51.867,343.227H22.682v-66.668c0-27.495,14.229-58.187,31.749-85.559
	c31.568-49.317,86.074-79.165,144.629-79.165H332.38c13.527,0,25.716,8.164,30.867,20.672l25.409,61.709l83.81,13.799
	c11.049,1.829,19.166,11.388,19.166,22.581v112.631h-44.219"/>
<path style="fill:#D3468D;" d="M62.296,276.559c0-27.495,14.229-58.188,31.75-85.559c31.568-49.316,86.074-79.165,144.627-79.165
	h93.707h-0.001H199.059c-58.555,0-113.06,29.85-144.627,79.165c-17.521,27.372-31.75,58.064-31.75,85.559v66.668h29.184h10.431
	C62.296,343.227,62.296,276.559,62.296,276.559z"/>
<g>
	<path style="fill:#C3F6F9;" d="M75.146,212.434H41.869c3.851-7.285,8.099-14.47,12.556-21.436
		c8.264-12.897,18.091-24.473,29.161-34.52l11.059,26.839C100.356,197.193,90.155,212.434,75.146,212.434z"/>
	<path style="fill:#C3F6F9;" d="M366.027,212.439l-24.474-59.437c-3.314-8.049-11.159-13.303-19.865-13.303h-128.08
		c-33.006,0-59.762,26.756-59.762,59.762v12.978H366.027z"/>
</g>
<g>
	<circle style="fill:#4C4646;" cx="390.468" cy="343.228" r="56.939"/>
	<path style="fill:#4C4646;" d="M58.489,316.574c-4.221,7.954-6.622,17.021-6.622,26.653c0,31.446,25.493,56.939,56.939,56.939
		s56.939-25.493,56.939-56.939c0-9.632-2.401-18.699-6.622-26.653H58.489z"/>
</g>
<g>
	<circle style="fill:#C9BBBB;" cx="390.468" cy="343.228" r="26.421"/>
	<circle style="fill:#C9BBBB;" cx="108.808" cy="343.228" r="26.421"/>
</g>
<path style="fill:#F4C063;" d="M468.927,283.865h22.706v-43.613h-22.706c-11.547,0-20.908,9.361-20.908,20.908v1.798
	C448.019,274.503,457.379,283.865,468.927,283.865z"/>
<path d="M133.847,220.692h232.18c2.753,0,5.326-1.373,6.857-3.661c1.533-2.288,1.822-5.188,0.775-7.735l-24.475-59.438
	c-4.607-11.186-15.399-18.413-27.495-18.413h-128.08c-37.504,0-68.016,30.512-68.016,68.016v12.978
	C125.594,216.997,129.288,220.692,133.847,220.692z M333.92,156.144l19.783,48.043h-81.257v-56.235h49.242
	C327.07,147.951,331.871,151.168,333.92,156.144z M142.1,199.461c0-18.905,10.244-35.453,25.466-44.413v24.209
	c0,4.558,3.694,8.253,8.253,8.253s8.253-3.695,8.253-8.253v-30.405c3.093-0.582,6.279-0.9,9.538-0.9h62.331v56.235h-71.869v-2.924
	c0-4.558-3.694-8.253-8.253-8.253c-4.559,0-8.253,3.695-8.253,8.253v2.924H142.1V199.461z"/>
<path d="M416.889,334.974c-4.559,0-8.253,3.695-8.253,8.253c0,10.016-8.147,18.163-18.163,18.163
	c-10.016,0-18.164-8.148-18.164-18.163s8.148-18.163,18.164-18.163c3.443,0,6.791,0.964,9.68,2.79
	c3.85,2.434,8.95,1.284,11.385-2.569c2.434-3.854,1.283-8.951-2.571-11.385c-5.531-3.494-11.926-5.341-18.495-5.341
	c-19.117,0-34.67,15.553-34.67,34.669c0,19.116,15.553,34.669,34.67,34.669c19.116,0,34.669-15.553,34.669-34.669
	C425.142,338.669,421.447,334.974,416.889,334.974z"/>
<path d="M503.747,307.109h-3.862v-23.245v-43.613v-9.655c0-15.302-10.964-28.223-26.077-30.726l-79.27-13.051l-23.659-57.454
	c-6.448-15.663-21.56-25.784-38.499-25.784H199.059c-22.771,0-45.047,4.248-66.208,12.624c-4.239,1.678-6.313,6.474-4.636,10.711
	c1.677,4.239,6.474,6.313,10.711,4.636c19.219-7.608,39.451-11.465,60.133-11.465h133.32c10.224,0,19.344,6.108,23.236,15.561
	l25.411,61.709c1.088,2.644,3.469,4.537,6.29,5.001l83.802,13.798c7.104,1.175,12.261,7.248,12.261,14.44v1.402h-14.452
	c-16.079,0-29.161,13.082-29.161,29.161v1.798c0,16.079,13.082,29.161,29.161,29.161h14.453v14.992h-14.765
	c-4.559,0-8.253,3.695-8.253,8.253c0,4.558,3.694,8.253,8.253,8.253h14.765v11.358h-28.255
	c-4.072-32.063-31.502-56.939-64.652-56.939s-60.581,24.877-64.652,56.939H173.461c-0.996-7.773-3.377-15.351-7.049-22.269
	c-1.433-2.697-4.237-4.384-7.29-4.384H58.488c-3.054,0-5.857,1.687-7.29,4.384c-3.671,6.917-6.052,14.495-7.048,22.269H30.935
	v-11.358h1.547c4.559,0,8.253-3.695,8.253-8.253c0-4.558-3.694-8.253-8.253-8.253h-1.547v-22.298h11.229
	c4.559,0,8.253-3.695,8.253-8.253c0-4.558-3.694-8.253-8.253-8.253H31.387c1.482-14.133,6.69-30.066,15.522-47.618h28.242
	c9.809,0,18.923-4.866,24.381-13.017c5.458-8.151,6.486-18.432,2.749-27.501l-8.799-21.361c7.094-6.013,14.689-11.431,22.701-16.145
	c3.927-2.312,5.239-7.369,2.927-11.299c-2.311-3.928-7.371-5.239-11.299-2.927c-24.278,14.284-45.14,34.38-60.331,58.114
	c-21.932,34.262-33.052,64.545-33.052,90.008v30.551H8.253c-4.559,0-8.253,3.695-8.253,8.253c0,4.558,3.694,8.253,8.253,8.253h6.175
	v19.611c0,4.558,3.694,8.253,8.253,8.253h21.472c4.072,32.063,31.502,56.939,64.652,56.939s60.581-24.877,64.652-56.939H325.82
	c4.072,32.063,31.502,56.939,64.652,56.939s60.581-24.877,64.652-56.939h36.508c4.559,0,8.253-3.695,8.253-8.253v-19.611h3.862
	c4.559,0,8.253-3.695,8.253-8.253C512.001,310.805,508.306,307.109,503.747,307.109z M468.927,275.611
	c-6.978,0-12.655-5.677-12.655-12.655v-1.798c0-6.978,5.677-12.655,12.655-12.655h14.453v27.107H468.927z M80.631,170.951
	l6.388,15.507c1.659,4.027,1.22,8.413-1.203,12.032c-2.423,3.618-6.31,5.693-10.665,5.693H56.003
	c1.716-2.878,3.489-5.779,5.379-8.733C66.989,186.69,73.461,178.486,80.631,170.951z M126.969,343.227
	c0,10.016-8.147,18.163-18.163,18.163s-18.164-8.148-18.164-18.163s8.148-18.163,18.164-18.163S126.969,333.211,126.969,343.227z
	 M108.806,391.913c-26.845,0-48.686-21.841-48.686-48.686c0-6.409,1.209-12.578,3.599-18.4h15.723
	c-3.356,5.337-5.306,11.643-5.306,18.4c0,19.117,15.553,34.669,34.67,34.669c19.116,0,34.669-15.553,34.669-34.669
	c0-6.757-1.95-13.063-5.306-18.4h15.724c2.391,5.822,3.599,11.991,3.599,18.4C157.492,370.072,135.651,391.913,108.806,391.913z
	 M390.472,391.913c-26.845,0-48.686-21.841-48.686-48.686s21.841-48.686,48.686-48.686s48.686,21.841,48.686,48.686
	S417.318,391.913,390.472,391.913z"/>
</svg>